<svg xmlns="http://www.w3.org/2000/svg" width="1280" height="360" viewBox="0 0 1280 360" role="img" aria-label="lastmemory">
  <defs>
    <linearGradient id="bg" x1="0" y1="0" x2="1" y2="1">
      <stop offset="0" stop-color="#0b0e14"/>
      <stop offset="1" stop-color="#111725"/>
    </linearGradient>
    <radialGradient id="glow" cx="0.5" cy="0.5" r="0.5">
      <stop offset="0" stop-color="#3b82f6" stop-opacity="0.25"/>
      <stop offset="1" stop-color="#3b82f6" stop-opacity="0"/>
    </radialGradient>
    <filter id="soft" x="-50%" y="-50%" width="200%" height="200%">
      <feGaussianBlur stdDeviation="3"/>
    </filter>
  </defs>

  <rect width="1280" height="360" fill="url(#bg)"/>
  <circle cx="980" cy="180" r="300" fill="url(#glow)"/>

  <!-- synapses -->
  <g stroke-linecap="round" opacity="0.55">
    <line x1="900" y1="90"  x2="1010" y2="150" stroke="#2b3550" stroke-width="2"/>
    <line x1="1010" y1="150" x2="1120" y2="110" stroke="#2b3550" stroke-width="2"/>
    <line x1="1010" y1="150" x2="1060" y2="250" stroke="#2b3550" stroke-width="2"/>
    <line x1="1060" y1="250" x2="950"  y2="280" stroke="#2b3550" stroke-width="2"/>
    <line x1="1060" y1="250" x2="1170" y2="220" stroke="#2b3550" stroke-width="2"/>
    <line x1="900"  y1="90"  x2="860"  y2="200" stroke="#2b3550" stroke-width="2"/>
    <line x1="860"  y1="200" x2="950"  y2="280" stroke="#2b3550" stroke-width="2"/>
    <line x1="1120" y1="110" x2="1170" y2="220" stroke="#2b3550" stroke-width="2"/>
  </g>

  <!-- neurons, colored by type -->
  <g filter="url(#soft)" opacity="0.9">
    <circle cx="900"  cy="90"  r="16" fill="#3b82f6"/>
    <circle cx="1010" cy="150" r="22" fill="#22c55e"/>
    <circle cx="1120" cy="110" r="14" fill="#a855f7"/>
    <circle cx="1060" cy="250" r="18" fill="#f59e0b"/>
    <circle cx="950"  cy="280" r="13" fill="#ef4444"/>
    <circle cx="860"  cy="200" r="12" fill="#3b82f6"/>
    <circle cx="1170" cy="220" r="15" fill="#eab308"/>
  </g>
  <g>
    <circle cx="900"  cy="90"  r="16" fill="none" stroke="#3b82f6" stroke-width="1.5"/>
    <circle cx="1010" cy="150" r="22" fill="none" stroke="#22c55e" stroke-width="1.5"/>
    <circle cx="1120" cy="110" r="14" fill="none" stroke="#a855f7" stroke-width="1.5"/>
    <circle cx="1060" cy="250" r="18" fill="none" stroke="#f59e0b" stroke-width="1.5"/>
    <circle cx="950"  cy="280" r="13" fill="none" stroke="#ef4444" stroke-width="1.5"/>
    <circle cx="1170" cy="220" r="15" fill="none" stroke="#eab308" stroke-width="1.5"/>
  </g>

  <!-- wordmark -->
  <text x="90" y="150" font-family="'Segoe UI', Helvetica, Arial, sans-serif" font-size="76" font-weight="700" fill="#f4f6fb">lastmemory</text>
  <text x="92" y="200" font-family="'Segoe UI', Helvetica, Arial, sans-serif" font-size="26" font-weight="400" fill="#93a3bd">Persistent, token efficient memory for coding agents</text>

  <g font-family="'Segoe UI', Helvetica, Arial, sans-serif" font-size="17" fill="#6b7a96">
    <text x="94" y="258">spatial memory</text>
    <text x="244" y="258" fill="#334">.</text>
    <text x="260" y="258">a neural network of files</text>
    <text x="470" y="258" fill="#334">.</text>
    <text x="486" y="258">active forgetting</text>
  </g>

  <rect x="94" y="286" width="150" height="34" rx="17" fill="#161d2e" stroke="#2b3550"/>
  <text x="169" y="308" text-anchor="middle" font-family="'Segoe UI', Helvetica, Arial, sans-serif" font-size="15" fill="#9fb0cc">for Claude Code</text>
</svg>
